<svg id="Los_Angeles_Times" xmlns="http://www.w3.org/2000/svg" width="500" height="400" viewBox="0 0 500 400">
  <g fill="#cecece">
    <path d="M369.604 239.678c-4.222 3.18-11.656 9.634-17.013 14.994l-15.57-14.13v-.865c1.37-.462 2.31-2.045 2.31-4.47v-73.823l-4.18-3.173c-.91-.69-1.8-1.29-2.59-1.29-1.82 0-3.11 1.24-4.32 2.45l-1.73-1.87c5.19-3.89 12.69-10.38 17.3-15.14l15.58 13.41v.58c-1.52.45-2.88 2.62-2.88 5.05v73.54l4.18 3.75c1.02.91 2.27 1.3 3.46 1.3 1.28 0 2.84-.95 3.9-2.02l1.59 1.74zm-168.844 0c-4.615 3.367-13.027 10.63-17.012 14.85l-15.573-13.843v-.865c1.48-.497 2.452-1.846 2.452-5.19v-37.49c-3.86-2.95-11.192-9.22-14.996-12.83l-5.04 4.325v46.283l4.62 4.037c1.81 1.583 4.65 1.255 6.92-.865l1.45 1.586c-4.77 3.523-12.47 10.343-17.01 14.85L131 240.683v-.865c1.59-.65 2.45-2.053 2.45-4.326v-46.137l-4.183-3.03c-.952-.688-1.58-1.296-2.452-1.296-1.97 0-3.284 1.03-4.47 2.01l-1.73-1.88c4.115-2.92 11.044-8.81 17.16-14.71l13.7 12.83 14.706-12.84c5.15 4.45 18.06 14.32 24.51 18.6v.72c-2.27.6-2.88 2.29-2.88 3.31v41.82l4.9 4.47c.84.76 3.61 1.14 6.49-1.59l1.59 1.87zm282.173-5.913c-10.64 5.103-24.212 13.798-32.01 20.764-4.49-3.65-10.38-7.36-17.302-7.36-6.48 0-8.5 2.27-8.5 4.47 0 1.37 2.02 1.2 2.02 3.17 0 .91-.95 2.02-2.16 2.02-1.52 0-3.03-1.59-3.03-4.33 0-4.26 2.53-9.9 10.39-18.61l13.41-14.85-17.15-8.8v-1.01c1.38-.4 1.87-1.4 1.87-3.03v-12.83c0-1.74-.57-2.74-1.87-3.32v-1.01c11.08-5.48 23.83-12.59 31.14-18.75 1.95 2.16 7.36 5.19 12.83 5.19 4.62 0 5.19-1.41 5.19-3.03 0-.92-.72-1.29-.72-1.88 0-1.22.68-1.73 1.59-1.73 1.37 0 2.46 1.02 2.46 3.6 0 6.83-6.63 15.28-17.15 15.28-7.59 0-12.24-2.41-15.43-6.2l-.72.43v18.89l10.53 5.04 4.48-4.47 20.18 10.24v1.002c-1.062.457-1.73 1.497-1.73 2.74v14.28c0 1.93.726 2.74 1.73 3.025v1.02zm-19.03 7.5V219.78l-9.95-4.616-20.908 22.205.29.14c3.337-1.82 8.31-2.74 15.136-2.74 5.32 0 11.81 2.99 15.14 6.63l.3-.15zm-39.078-43.547l-33.593 21.196v13.265c4.206 1.45 13.206 6.14 17.59 8.65l8.507-8.08c.57-2.45 1.31-4.9 3.89-4.9 1.21 0 1.87 1.03 1.87 2.02 0 1.21-.56 2.15-1.16 2.74l-22.06 21.77c-6.38-4.07-20.69-11.49-28.12-14.71v-.87c1.22-.46 2.16-2.08 2.16-3.75v-41.52c0-1.82-.93-3.48-2.31-3.75v-.87c9.74-4.63 22.79-12.12 33.02-18.46 5.93 8.79 14.58 20.54 20.18 27.25zm-16.29 6.487c-4.623-5.753-12.603-16.317-17.014-23.068l-.28.143v34.03l17.3-11.105zm-79.017-6.487l-33.738 21.196v13.265c4.208 1.45 13.205 6.14 17.59 8.65l8.506-8.08c.58-2.6 1.297-4.9 4.04-4.9 1.213 0 1.728 1.03 1.728 2.02 0 1.21-.56 2.15-1.154 2.74l-22.06 21.91c-6.37-4.07-20.685-11.64-28.115-14.85v-.87c1.216-.46 2.163-2.09 2.163-3.75v-41.52c0-1.82-.923-3.48-2.308-3.75v-.87c9.748-4.62 22.94-12.11 33.162-18.45 5.93 8.79 14.58 20.54 20.186 27.25zm-16.437 6.487c-4.61-5.753-12.6-16.317-17.01-23.068l-.29.143v34.03l17.3-11.105z"/>
    <path d="M270.115 248.473c-.457 18.06-8.805 31.29-25.665 31.29-13.2 0-21.46-6.924-33.452-6.924-6.98 0-10.86 2.33-12.833 4.75L196.29 276c2.58-12.446 10.95-20.33 22.79-20.33 13.05 0 21.23 8.36 35.04 8.36 6.374 0 10.146-3.078 11.968-7.785l-.144-.29c-2.035.714-4.154 1.012-6.2 1.012-7.113 0-13.555-4.845-14.852-12.98-3.39 2.368-10.21 7.604-13.552 10.527-8.336-5.372-21.15-12.23-27.683-15.14v-.865c1.365-.46 2.31-1.8 2.31-3.47v-41.23c0-2.42-.93-3.73-2.6-4.04v-.73c11.657-4.48 24.576-12.27 33.02-18.75 7.27 5.75 19.323 14.13 27.108 18.6v.72c-1.06.45-2.017 1.61-2.017 4.04v45.27c0 5.64 1.4 8.65 5.48 8.65.65 0 1.375.04 2.165-.15l1.01 1.01zm-25.808-7.354v-44.13c-4.52-2.99-15.063-10.6-20.476-14.85l-.72.57v48.73c5.77 2.81 15.91 8.93 19.04 11.24l2.17-1.58zm-117.08-.15c-4.853 8.33-9.88 14.56-17.16 14.56-5.758 0-9.83-3.3-11.967-9.52l-9.517-27.69h-36.91l-5.336 15.42c5.912.45 11.325 4.03 12.834 4.03 1.67 0 3.09-1.3 4.91-4.33l2.31 1.44-12.25 19.61c-3.33-2.89-8.59-5.92-15.57-5.92-9.56 0-15.49 2.57-19.89 5.91l-1.58-.58c2.13-10.31 10.65-19.267 25.53-20.33l25.66-75.266-.86-2.596c-1.77-5.32-5.282-8.22-9.08-8.22-3.94 0-5.99 1.804-7.35 3.17l-1.16-1.01c1.06-5.92 6.515-12.4 14.85-12.4 6.97 0 11.7 3.4 14.275 7.49h.286c1.21-3.18 3.48-5.755 5.91-6.057l.43.72c-.905.703-2.02 3.55-2.02 6.63 0 1.55.355 3.1.866 4.61l30.28 89.54c.72 2.12 2.226 3.17 3.898 3.17 2.43 0 3.94-1.444 5.91-4.33l2.746 1.875zm-42.25-33.6L70.27 164.12h-.288l-14.705 43.254h29.7zm268.07-97.92c-10.64 5.1-24.21 13.8-32.01 20.76-4.49-3.65-10.38-7.36-17.3-7.36-6.49 0-8.51 2.27-8.51 4.47 0 1.36 2.02 1.2 2.02 3.17 0 .91-.95 2.02-2.162 2.02-1.52 0-3.03-1.59-3.03-4.33 0-4.25 2.527-9.9 10.384-18.6l13.4-14.85-17.16-8.8v-1c1.38-.4 1.87-1.4 1.87-3.03V69.09c0-1.348-.81-2.712-1.88-3.32v-1.008c11.07-5.477 23.82-12.59 31.14-18.745 1.95 2.15 7.35 5.19 12.83 5.19 4.61 0 5.19-1.42 5.19-3.03 0-.91-.72-1.28-.72-1.88 0-1.22.68-1.73 1.59-1.73 1.36 0 2.45 1.02 2.45 3.602 0 6.83-5.63 15.28-17.16 15.28-7.59 0-12.24-2.41-15.43-6.2l-.72.43v18.89l10.52 5.05 4.47-4.47 20.18 10.23v1.15c-1.07.45-1.73 1.49-1.73 2.74v14.13c0 1.93.82 2.52 1.73 3.02v1.01zm-19.033 7.5V95.47l-9.95-4.614-20.904 22.207.287.143c3.338-1.82 8.313-2.74 15.14-2.74 5.313 0 11.8 2.99 15.138 6.63l.29-.14zm-44.754-5.48c-9.517 3.89-25.233 12.83-32.73 18.74-8.51-5.63-19.755-14.13-27.54-18.6v-1.01c1.73-.58 2.162-2.17 2.162-4.33v-35.6c0-3.31-.622-4.65-2.45-5.05v-.87c11.246-4.47 22.636-10.82 32.73-18.75 7.063 5.62 19.896 13.98 27.25 18.6v.86c-1.518.6-1.874 1.92-1.874 3.74v37.63c0 2.01 1.236 3.29 2.45 3.75v.86zm-19.755 6.77V71.68c-6.055-3.605-15.283-9.95-20.186-13.84l-.87.575V104.7c6.49 3.606 14.99 9.806 20.47 13.988l.57-.432zm-43.112-14.57l-13.84 26.53c-5.313-4.56-13.177-7.79-23.498-7.79-15.48 0-34.764 4.01-40.228 7.5l-1.875-2.02c6.07-5.31 12.4-19.1 12.4-35.47 0-17.46-9.95-25.69-9.95-42.97 0-17.76 7.93-27.61 22.638-35.04l1.73 1.59c-5.263 4.38-7.988 9.64-8.506 16.15l25.377-20.91c4.71 4.55 12.21 9.66 19.03 9.66 5.16 0 7.79-1.06 7.79-3.32 0-1.22-1.01-1.58-1.01-2.31 0-1.22.88-1.73 1.88-1.73 1.37 0 2.31 1.62 2.31 3.46 0 9.56-9.81 17.59-19.89 17.59-3.34 0-6.17-.29-8.65-1.01V106c1.56-.153 2.84-.286 3.89-.286 9.57 0 18.05 4.037 20.33 4.037 3.34 0 4.54-2.38 7.21-7.49l2.89 1.44zm-37.05 2.6V32.46c-3.805-1.693-6.92-4.26-10.093-7.93l-14.13 11.39c0 21.25 11.103 30.86 11.103 48.014 0 12-8.47 24.48-14.995 30.854l.576.146c8.63-4.93 19.81-7.58 27.54-8.65zm119.91 264.27c-4.576 3.52-12.552 10.41-16.866 14.85l-15.573-13.99v-.87c2.02-.58 2.45-2.48 2.45-4.76v-37.92c-3.607-2.6-10.956-9-14.997-12.69l-5.045 4.47v46.14l3.89 3.45c.75.66 1.672 1.58 3.03 1.58 1.67 0 2.818-.597 4.47-2.02l1.585 1.73c-4.252 3.07-12.11 9.66-17.013 14.85l-15.573-14.13v-.72c1.59-.58 2.45-1.61 2.45-4.04V328c-3.74-2.886-11.57-9.62-14.99-12.83l-5.05 4.324v46.284l3.61 3.17c1.26 1.104 2.14 1.875 3.46 1.875 1.59 0 2.6-.29 4.33-2.02l1.59 1.73c-5 3.906-12.04 10.127-17.01 14.85l-15.57-13.84v-.867c1.74-.43 2.45-1.876 2.45-4.47v-45.85l-4.03-3.17c-1.01-.796-1.96-1.297-2.88-1.297-1.26 0-2.65.64-4.32 2.16l-1.59-2.02c4.62-3.13 11.97-9.81 17.16-14.71l13.69 12.83 14.71-12.84c6.88 5.73 15 12.4 19.76 15.28l17.45-15.28c6.49 5.33 18.46 14.85 24.51 18.46v.71c-1.73.58-2.88 1.89-2.88 4.47v40.66l3.17 3.03c1.1 1.04 2.37 2.16 3.75 2.16 1.73 0 3.06-.92 4.47-2.17l1.45 1.88zm-115.06-88.96l-5.77 5.19c-4.672 4.21-8.423 6.05-11.966 6.05-2.75 0-5.376-1.29-8.217-3.75-1.004-.87-1.95-1.73-3.315-1.73-1.564 0-2.867.7-4.183 2.02l-1.586-1.74 17.16-14.85 8.648 7.64c1.004.88 2.366 1.44 3.605 1.44 1.48 0 3.04-.86 4.03-2.02l1.59 1.72zm3.46 88.96c-4.39 3.57-12.784 10.81-17.016 14.99l-15.713-13.99v-.87c1.67-.45 2.45-2.02 2.45-4.04v-46.42l-3.604-2.89c-1.04-.83-1.66-1.44-3.03-1.44-1.556 0-3.152.7-4.468 2.02l-1.583-1.88c4.3-3.1 12.15-9.66 17.15-14.86l15.57 13.41v.72c-1.33.51-2.89 1.58-2.89 4.18v46.29l4.03 3.6c.99.89 2.22 1.44 3.46 1.44 1.49 0 2.74-.72 4.04-2.02l1.58 1.73zm227.67-5.91c-10.64 5.1-24.21 13.79-32.006 20.76-4.492-3.65-10.382-7.36-17.302-7.36-6.49 0-8.51 2.27-8.51 4.47 0 1.37 2.02 1.2 2.02 3.17 0 .91-.947 2.02-2.162 2.02-1.518 0-3.03-1.59-3.03-4.33 0-4.25 2.53-9.9 10.386-18.6l13.4-14.85-17.16-8.8v-.87c1.38-.39 1.87-1.536 1.87-3.17v-12.83c0-1.346-.81-2.71-1.88-3.32v-1.006c11.07-5.477 23.83-12.59 31.14-18.745 1.94 2.16 7.35 5.19 12.83 5.19 4.61 0 5.19-1.413 5.19-3.03 0-.91-.72-1.15-.72-1.87 0-1.22.68-1.73 1.58-1.73 1.36 0 2.45 1.02 2.45 3.6 0 6.83-6.49 15.29-17.16 15.29-7.59 0-12.24-2.404-15.43-6.2l-.72.43v18.885l10.52 5.048 4.46-4.47 20.19 10.24v.865c-1.06.46-1.73 1.5-1.73 2.74v14.56c0 1.926.826 2.52 1.73 3.03v.86zm-19.03 7.49v-21.48l-9.95-4.61-20.908 22.2.29.14c3.337-1.82 8.31-2.74 15.14-2.74 5.31 0 11.8 2.99 15.137 6.63l.29-.15zm-40.085-43.55l-33.598 21.2v13.26c4.21 1.45 13.21 6.14 17.597 8.65l8.506-8.08c.43-2.46 1.313-4.91 3.894-4.91 1.216 0 1.876 1.04 1.876 2.02 0 1.21-.707 2.15-1.3 2.74l-21.916 21.77c-6.374-4.066-20.686-11.49-28.116-14.705v-.864c1.44-.575 2.16-2.08 2.16-3.75v-41.5c0-1.813-.92-3.48-2.31-3.744v-.867c9.75-4.63 22.8-12.12 33.03-18.46 5.93 8.79 14.59 20.54 20.19 27.25zm-16.295 6.49c-4.62-5.75-12.602-16.32-17.013-23.07l-.29.14v34.03l17.303-11.11z"/>
    <path d="M157.283 276.55c0 11.382-7.63 16.866-17.013 18.312V367.1c5.272-3.808 9.475-8.93 11.676-14.274.208-.5.29-.967.29-1.298 0-.757-.726-1.242-.723-2.162.007-.99.224-2.163 1.586-2.163 1.2 0 2.02.95 2.02 2.163 0 17.278-12.57 39.363-47.88 39.363-25.25 0-46-19.05-46-45.57 0-35.42 29.43-47.92 49.31-52.34-6.66-1.12-15.97-2.74-24.66-2.74-16.61 0-21.85 7.86-23.22 13.55l-1.73-.87c.3-8.02 7.36-29.99 28.98-29.99 21.17 0 34.7 8.79 51.18 8.79 10.89 0 12.85-4.91 13.84-9.95l1.88.72c.14.66.43 4.82.43 6.2zm-19.756 92.426v-73.824c-.845.058-1.73.145-2.594.145-3.48 0-6.738-.713-10.814-1.442-5.23 2.512-9.95 7.996-9.95 16.437 0 15.895 8.94 19.633 8.94 35.757 0 12.67-10.65 21.98-19.33 26.24 4.69 1.75 9.91 2.45 15.28 2.45 6.07 0 14.39-2.97 18.45-5.77zm-17.445-75.986l-2.883-.578c-17.55 3.26-37.78 18.784-37.78 44.41 0 16.866 8.95 28.488 21.62 34.316 3.75-2.64 7.93-7.434 7.93-15.86 0-14.987-9.66-23.14-9.66-36.768 0-10.216 6.67-19.305 20.76-25.52z"/>
  </g>
</svg>
