<?xml version="1.0" encoding="UTF-8" standalone="no"?>
<!-- Generator: Adobe Illustrator 15.0.0, SVG Export Plug-In . SVG Version: 6.00 Build 0)  -->

<svg
   xmlns:dc="http://purl.org/dc/elements/1.1/"
   xmlns:cc="http://creativecommons.org/ns#"
   xmlns:rdf="http://www.w3.org/1999/02/22-rdf-syntax-ns#"
   xmlns:svg="http://www.w3.org/2000/svg"
   xmlns="http://www.w3.org/2000/svg"
   xmlns:sodipodi="http://sodipodi.sourceforge.net/DTD/sodipodi-0.dtd"
   xmlns:inkscape="http://www.inkscape.org/namespaces/inkscape"
   version="1.1"
   id="Layer_1"
   x="0px"
   y="0px"
   width="145"
   height="75.741997"
   viewBox="0 0 145 75.741997"
   enable-background="new 0 0 180 108"
   xml:space="preserve"
   inkscape:version="0.48.2 r9819"
   sodipodi:docname="AJAX1.svg"><metadata
   id="metadata61"><rdf:RDF><cc:Work
       rdf:about=""><dc:format>image/svg+xml</dc:format><dc:type
         rdf:resource="http://purl.org/dc/dcmitype/StillImage" /></cc:Work></rdf:RDF></metadata><defs
   id="defs59" /><sodipodi:namedview
   pagecolor="#ffffff"
   bordercolor="#666666"
   borderopacity="1"
   objecttolerance="10"
   gridtolerance="10"
   guidetolerance="10"
   inkscape:pageopacity="0"
   inkscape:pageshadow="2"
   inkscape:window-width="1280"
   inkscape:window-height="1004"
   id="namedview57"
   showgrid="false"
   fit-margin-bottom="0.5"
   fit-margin-top="0.5"
   fit-margin-left="0.5"
   fit-margin-right="0.5"
   inkscape:zoom="3.5777778"
   inkscape:cx="56.991608"
   inkscape:cy="41.172792"
   inkscape:window-x="-8"
   inkscape:window-y="-8"
   inkscape:window-maximized="1"
   inkscape:current-layer="Layer_1" />
<g
   id="g3"
   transform="translate(-17.5,-16.129002)">
	<circle
   cx="55.370998"
   cy="54"
   r="37.370998"
   id="circle5"
   style="fill:#008ece;stroke:none"
   sodipodi:cx="55.370998"
   sodipodi:cy="54"
   sodipodi:rx="37.370998"
   sodipodi:ry="37.370998"
   d="m 92.741997,54 c 0,20.639432 -16.731566,37.370998 -37.370999,37.370998 C 34.731566,91.370998 18,74.639432 18,54 18,33.360568 34.731566,16.629002 55.370998,16.629002 76.010431,16.629002 92.741997,33.360568 92.741997,54 z" />
	<g
   id="g7">
		<path
   d="m 109.579,24.924 v 7.534 c 0,1.724 -0.07,3.431 -1.403,4.728 -1.12,1.102 -2.88,1.492 -4.443,1.492 -1.563,0 -3.323,-0.391 -4.442,-1.492 -1.333,-1.297 -1.404,-3.004 -1.404,-4.728 v -7.534 h 3.483 v 7.055 c 0,1.742 0.125,3.643 2.363,3.643 2.239,0 2.364,-1.9 2.364,-3.643 v -7.055 h 3.482 z"
   id="path9"
   style="fill:#000000;stroke:none"
   inkscape:connector-curvature="0" />
		<path
   d="m 119.136,28.371 c -0.64,-0.533 -1.458,-0.889 -2.311,-0.889 -0.64,0 -1.493,0.373 -1.493,1.119 0,0.782 0.942,1.084 1.546,1.279 l 0.889,0.268 c 1.866,0.551 3.305,1.492 3.305,3.66 0,1.333 -0.319,2.701 -1.385,3.607 -1.049,0.889 -2.453,1.262 -3.804,1.262 -1.688,0 -3.341,-0.568 -4.709,-1.528 l 1.493,-2.808 c 0.87,0.765 1.9,1.387 3.092,1.387 0.816,0 1.688,-0.409 1.688,-1.352 0,-0.977 -1.368,-1.314 -2.115,-1.528 -2.186,-0.622 -3.626,-1.19 -3.626,-3.784 0,-2.72 1.938,-4.497 4.621,-4.497 1.351,0 3.003,0.427 4.193,1.103 l -1.384,2.701 z"
   id="path11"
   style="fill:#000000;stroke:none"
   inkscape:connector-curvature="0" />
		<path
   d="m 126.133,35.994 -0.924,2.328 h -3.697 l 5.154,-13.398 h 3.803 l 5.047,13.398 h -3.713 l -0.872,-2.328 h -4.798 z m 2.435,-6.93 h -0.036 l -1.439,4.264 h 2.896 l -1.421,-4.264 z"
   id="path13"
   style="fill:#000000;stroke:none"
   inkscape:connector-curvature="0" />
		<path
   d="m 105.118,54.144 h -3.482 v -10.45 h -2.88 v -2.95 h 9.241 v 2.95 h -2.879 v 10.45 z"
   id="path15"
   style="fill:#000000;stroke:none"
   inkscape:connector-curvature="0" />
		<path
   d="m 123.4,47.195 c 0,4.336 -3.109,7.393 -7.41,7.393 -4.301,0 -7.411,-3.057 -7.411,-7.393 0,-4.053 3.555,-6.896 7.411,-6.896 3.856,0 7.41,2.844 7.41,6.896 z m -11.195,0.018 c 0,2.311 1.705,3.998 3.785,3.998 2.079,0 3.785,-1.688 3.785,-3.998 0,-1.848 -1.706,-3.537 -3.785,-3.537 -2.08,0 -3.785,1.689 -3.785,3.537 z"
   id="path17"
   style="fill:#000000;stroke:none"
   inkscape:connector-curvature="0" />
		<path
   d="m 125.011,40.744 h 4.94 c 3.732,0 6.806,2.932 6.806,6.699 0,3.767 -3.092,6.7 -6.806,6.7 h -4.94 V 40.744 z m 3.483,10.449 h 0.782 c 2.078,0 3.856,-1.137 3.856,-3.75 0,-2.398 -1.582,-3.749 -3.821,-3.749 h -0.817 v 7.499 z"
   id="path19"
   style="fill:#000000;stroke:none"
   inkscape:connector-curvature="0" />
		<path
   d="m 141.781,51.816 -0.924,2.327 h -3.697 l 5.155,-13.399 h 3.802 l 5.047,13.399 h -3.713 l -0.872,-2.327 h -4.798 z m 2.436,-6.931 h -0.036 l -1.439,4.266 h 2.896 l -1.421,-4.266 z"
   id="path21"
   style="fill:#000000;stroke:none"
   inkscape:connector-curvature="0" />
		<path
   d="m 148.637,40.744 h 4.176 l 2.506,3.643 2.507,-3.643 H 162 l -4.939,6.967 v 6.433 h -3.483 v -6.433 l -4.941,-6.967 z"
   id="path23"
   style="fill:#000000;stroke:none"
   inkscape:connector-curvature="0" />
	</g>
	<g
   id="g25">
		<path
   d="m 99.724,62.092 1.015,-2.247 c 0.01,-0.02 0.027,-0.035 0.058,-0.035 h 0.032 c 0.03,0 0.047,0.016 0.058,0.035 l 1.007,2.247 c 0.021,0.043 -0.006,0.087 -0.056,0.087 h -0.134 c -0.03,0 -0.05,-0.02 -0.058,-0.037 L 101.4,61.591 h -1.185 l -0.244,0.551 c -0.007,0.018 -0.026,0.037 -0.057,0.037 h -0.133 c -0.051,0 -0.077,-0.044 -0.057,-0.087 z m 1.586,-0.708 c -0.164,-0.363 -0.324,-0.731 -0.488,-1.094 h -0.025 l -0.488,1.094 h 1.001 z"
   id="path27"
   style="fill:#000000;stroke:none"
   inkscape:connector-curvature="0" />
		<path
   d="m 105.192,59.81 c 0.337,0 0.581,0.115 0.808,0.31 0.027,0.026 0.03,0.066 0.003,0.094 -0.03,0.03 -0.065,0.062 -0.093,0.093 -0.03,0.034 -0.05,0.03 -0.087,-0.003 -0.17,-0.149 -0.411,-0.261 -0.635,-0.261 -0.526,0 -0.928,0.44 -0.928,0.958 0,0.514 0.401,0.965 0.928,0.965 0.368,0 0.602,-0.14 0.602,-0.14 v -0.468 h -0.384 c -0.037,0 -0.063,-0.027 -0.063,-0.061 v -0.124 c 0,-0.035 0.026,-0.062 0.063,-0.062 h 0.577 c 0.033,0 0.06,0.03 0.06,0.062 v 0.765 c 0,0.018 -0.013,0.044 -0.026,0.055 0,0 -0.34,0.22 -0.824,0.22 -0.667,0 -1.205,-0.531 -1.205,-1.198 -0.001,-0.669 0.537,-1.205 1.204,-1.205 z"
   id="path29"
   style="fill:#000000;stroke:none"
   inkscape:connector-curvature="0" />
		<path
   d="m 106.858,62.092 1.015,-2.247 c 0.01,-0.02 0.027,-0.035 0.058,-0.035 h 0.033 c 0.03,0 0.046,0.016 0.057,0.035 l 1.008,2.247 c 0.021,0.043 -0.007,0.087 -0.057,0.087 h -0.133 c -0.031,0 -0.051,-0.02 -0.058,-0.037 l -0.246,-0.551 h -1.186 l -0.244,0.551 c -0.006,0.018 -0.025,0.037 -0.056,0.037 h -0.134 c -0.049,0 -0.076,-0.044 -0.057,-0.087 z m 1.587,-0.708 c -0.164,-0.363 -0.324,-0.731 -0.488,-1.094 h -0.026 l -0.487,1.094 h 1.001 z"
   id="path31"
   style="fill:#000000;stroke:none"
   inkscape:connector-curvature="0" />
		<path
   d="m 109.971,59.869 c 0,-0.034 0.03,-0.06 0.062,-0.06 h 0.084 l 1.506,1.874 c 0.003,0 0.003,0 0.006,0 v -1.777 c 0,-0.034 0.026,-0.064 0.063,-0.064 h 0.117 c 0.033,0 0.063,0.03 0.063,0.064 v 2.245 c 0,0.033 -0.03,0.061 -0.063,0.061 h -0.06 L 110.217,60.3 h -0.004 v 1.815 c 0,0.032 -0.026,0.063 -0.063,0.063 h -0.117 c -0.032,0 -0.062,-0.031 -0.062,-0.063 v -2.246 z"
   id="path33"
   style="fill:#000000;stroke:none"
   inkscape:connector-curvature="0" />
		<path
   d="m 113.132,59.869 c 0,-0.034 0.03,-0.06 0.063,-0.06 h 0.083 l 1.506,1.874 c 0.003,0 0.003,0 0.007,0 v -1.777 c 0,-0.034 0.025,-0.064 0.062,-0.064 h 0.117 c 0.034,0 0.064,0.03 0.064,0.064 v 2.245 c 0,0.033 -0.03,0.061 -0.064,0.061 h -0.06 L 113.378,60.3 h -0.003 v 1.815 c 0,0.032 -0.027,0.063 -0.064,0.063 h -0.116 c -0.033,0 -0.063,-0.031 -0.063,-0.063 v -2.246 z"
   id="path35"
   style="fill:#000000;stroke:none"
   inkscape:connector-curvature="0" />
		<path
   d="m 116.294,59.906 c 0,-0.034 0.026,-0.064 0.062,-0.064 h 1.315 c 0.036,0 0.063,0.03 0.063,0.064 v 0.096 c 0,0.034 -0.027,0.064 -0.063,0.064 h -1.121 v 0.814 h 0.957 c 0.033,0 0.064,0.029 0.064,0.062 v 0.097 c 0,0.037 -0.031,0.063 -0.064,0.063 h -0.957 v 0.852 h 1.121 c 0.036,0 0.063,0.029 0.063,0.062 v 0.098 c 0,0.032 -0.027,0.063 -0.063,0.063 h -1.315 c -0.036,0 -0.062,-0.031 -0.062,-0.063 v -2.208 z"
   id="path37"
   style="fill:#000000;stroke:none"
   inkscape:connector-curvature="0" />
		<path
   d="m 119.179,60.066 h -0.581 c -0.037,0 -0.062,-0.03 -0.062,-0.064 v -0.096 c 0,-0.034 0.025,-0.064 0.062,-0.064 h 1.415 c 0.037,0 0.063,0.03 0.063,0.064 v 0.096 c 0,0.034 -0.026,0.064 -0.063,0.064 h -0.58 v 2.049 c 0,0.032 -0.03,0.063 -0.064,0.063 h -0.127 c -0.033,0 -0.062,-0.031 -0.062,-0.063 v -2.049 z"
   id="path39"
   style="fill:#000000;stroke:none"
   inkscape:connector-curvature="0" />
		<path
   d="m 121.434,60.066 h -0.581 c -0.037,0 -0.062,-0.03 -0.062,-0.064 v -0.096 c 0,-0.034 0.025,-0.064 0.062,-0.064 h 1.415 c 0.037,0 0.064,0.03 0.064,0.064 v 0.096 c 0,0.034 -0.027,0.064 -0.064,0.064 h -0.58 v 2.049 c 0,0.032 -0.03,0.063 -0.063,0.063 h -0.127 c -0.034,0 -0.063,-0.031 -0.063,-0.063 v -2.049 z"
   id="path41"
   style="fill:#000000;stroke:none"
   inkscape:connector-curvature="0" />
		<path
   d="m 125.634,59.81 c 0.338,0 0.581,0.115 0.809,0.31 0.026,0.026 0.03,0.066 0.003,0.094 l -0.09,0.09 c -0.027,0.033 -0.054,0.03 -0.087,-0.003 -0.174,-0.151 -0.411,-0.251 -0.638,-0.251 -0.527,0 -0.932,0.444 -0.932,0.962 0,0.514 0.404,0.957 0.932,0.957 0.291,0 0.461,-0.117 0.638,-0.25 0.033,-0.026 0.06,-0.023 0.08,-0.01 l 0.1,0.09 c 0.027,0.021 0.021,0.067 -0.003,0.09 -0.227,0.22 -0.514,0.324 -0.812,0.324 -0.666,0 -1.204,-0.531 -1.204,-1.198 0,-0.669 0.538,-1.205 1.204,-1.205 z"
   id="path43"
   style="fill:#000000;stroke:none"
   inkscape:connector-curvature="0" />
		<path
   d="m 128.555,59.81 c 0.668,0 1.202,0.536 1.202,1.204 0,0.667 -0.534,1.198 -1.202,1.198 -0.668,0 -1.197,-0.531 -1.197,-1.198 -0.001,-0.668 0.529,-1.204 1.197,-1.204 z m 0,2.168 c 0.53,0 0.969,-0.434 0.969,-0.964 0,-0.531 -0.438,-0.972 -0.969,-0.972 -0.529,0 -0.965,0.44 -0.965,0.972 0,0.53 0.435,0.964 0.965,0.964 z"
   id="path45"
   style="fill:#000000;stroke:none"
   inkscape:connector-curvature="0" />
		<path
   d="m 131.107,59.855 c 0.007,-0.026 0.033,-0.046 0.061,-0.046 h 0.054 c 0.022,0 0.05,0.016 0.056,0.035 l 0.662,1.839 c 0.006,0 0.009,0 0.016,0 l 0.65,-1.839 c 0.007,-0.02 0.034,-0.035 0.058,-0.035 h 0.054 c 0.025,0 0.053,0.02 0.06,0.046 l 0.43,2.242 c 0.011,0.047 -0.01,0.081 -0.06,0.081 h -0.133 c -0.027,0 -0.055,-0.024 -0.061,-0.047 l -0.298,-1.719 c -0.003,0 -0.01,0 -0.013,0 l -0.613,1.762 c -0.007,0.02 -0.037,0.037 -0.058,0.037 h -0.06 c -0.02,0 -0.05,-0.018 -0.057,-0.037 l -0.621,-1.762 c -0.004,0 -0.01,0 -0.013,0 l -0.291,1.719 c -0.003,0.022 -0.033,0.047 -0.06,0.047 h -0.135 c -0.05,0 -0.069,-0.034 -0.06,-0.081 l 0.432,-2.242 z"
   id="path47"
   style="fill:#000000;stroke:none"
   inkscape:connector-curvature="0" />
		<path
   d="m 134.298,59.906 c 0,-0.034 0.027,-0.064 0.063,-0.064 h 0.738 c 0.41,0 0.747,0.334 0.747,0.738 0,0.413 -0.337,0.75 -0.744,0.75 h -0.551 v 0.785 c 0,0.032 -0.03,0.063 -0.063,0.063 h -0.127 c -0.036,0 -0.063,-0.031 -0.063,-0.063 v -2.209 z m 0.784,1.177 c 0.274,0 0.508,-0.223 0.508,-0.511 0,-0.27 -0.233,-0.477 -0.508,-0.477 h -0.53 v 0.987 h 0.53 z"
   id="path49"
   style="fill:#000000;stroke:none"
   inkscape:connector-curvature="0" />
		<path
   d="m 136.445,62.092 1.015,-2.247 c 0.01,-0.02 0.027,-0.035 0.058,-0.035 h 0.032 c 0.03,0 0.047,0.016 0.058,0.035 l 1.007,2.247 c 0.021,0.043 -0.006,0.087 -0.056,0.087 h -0.134 c -0.03,0 -0.05,-0.02 -0.058,-0.037 l -0.246,-0.551 h -1.185 l -0.244,0.551 c -0.007,0.018 -0.026,0.037 -0.057,0.037 h -0.133 c -0.05,0 -0.076,-0.044 -0.057,-0.087 z m 1.586,-0.708 c -0.164,-0.363 -0.324,-0.731 -0.488,-1.094 h -0.025 l -0.488,1.094 h 1.001 z"
   id="path51"
   style="fill:#000000;stroke:none"
   inkscape:connector-curvature="0" />
		<path
   d="m 139.558,59.869 c 0,-0.034 0.03,-0.06 0.063,-0.06 h 0.083 l 1.506,1.874 c 0.004,0 0.004,0 0.007,0 v -1.777 c 0,-0.034 0.026,-0.064 0.062,-0.064 h 0.117 c 0.034,0 0.063,0.03 0.063,0.064 v 2.245 c 0,0.033 -0.029,0.061 -0.063,0.061 h -0.06 L 139.804,60.3 h -0.003 v 1.815 c 0,0.032 -0.027,0.063 -0.063,0.063 h -0.117 c -0.033,0 -0.063,-0.031 -0.063,-0.063 v -2.246 z"
   id="path53"
   style="fill:#000000;stroke:none"
   inkscape:connector-curvature="0" />
		<path
   d="m 143.19,61.054 -0.805,-1.114 c -0.026,-0.043 0,-0.098 0.053,-0.098 h 0.157 c 0.024,0 0.044,0.018 0.054,0.03 l 0.674,0.932 0.675,-0.932 c 0.01,-0.013 0.03,-0.03 0.053,-0.03 h 0.157 c 0.053,0 0.08,0.055 0.053,0.098 l -0.813,1.111 v 1.064 c 0,0.032 -0.03,0.063 -0.063,0.063 h -0.131 c -0.036,0 -0.062,-0.031 -0.062,-0.063 v -1.061 z"
   id="path55"
   style="fill:#000000;stroke:none"
   inkscape:connector-curvature="0" />
	</g>
</g>
</svg>